# xmcd CD database file
#
# Track frame offsets:
#	150
#	27359
#	45766
#	62309
#	85489
#	106971
#	127169
#	155752
#	181440
#
# Disc length: 2707 seconds
#
# Revision: 0
# Processed by: cddbd v1.4PL0 Copyright (c) Steve Scherf et al.
# Submitted via: CDex 1.51
#
DISCID=700a9109
DTITLE=Caroline Taylor Quintet - For the moment
DYEAR=1998
DGENRE=Jazz
TTITLE0=CT Blues
TTITLE1=Mum's love
TTITLE2=Yeah (!)
TTITLE3=Deep blue sea
TTITLE4=For the moment
TTITLE5=Blues for Sarah
TTITLE6=Groovin' low
TTITLE7=When I look in your eyes
TTITLE8=Chickenbutt
EXTD=YEAR: 1998
EXTT0=
EXTT1=
EXTT2=
EXTT3=
EXTT4=
EXTT5=
EXTT6=
EXTT7=
EXTT8=
PLAYORDER=
